<svg xmlns="http://www.w3.org/2000/svg" id="Calque_1" data-name="Calque 1" viewBox="0 0 106.26 86.94"><defs><style>      .cls-1 {        fill: #fff;        stroke-width: 0px;      }    </style></defs><path class="cls-1" d="M92.69,32.17c5.74-1.58,10.69-6.93,10.69-15.15,0-10-7.12-17.02-20.39-17.02h-21.48l-29.38,36.23L5.57,3.47l-.02-.02H.4v64.12h5.17V11.68l23.23,28.65,3.33,4.1,3.33-4.1,15.02-18.52,2.44-3.02v-.02l8.67-10.69,2.43-3,.11-.14h19.16c9.7,0,14.45,5.55,14.45,12.38,0,8.02-4.55,12.47-16.53,12.47h-17.13V10.22l-5.24,6.47v52.6h24.55c12.07,0,22.47-6.13,22.47-19.99,0-10.89-8.22-15.74-13.17-17.13ZM83.58,64.34h-19.5v-29.6h16.63c13.96,0,19.61,6.04,19.61,14.85,0,10.2-7.63,14.75-16.74,14.75Z"></path><g><path class="cls-1" d="M11.42,86.76h-1.3v-7.52c0-.59.04-1.32.11-2.18h-.03c-.12.5-.24.87-.34,1.09l-3.83,8.61h-.64l-3.82-8.55c-.11-.25-.22-.63-.34-1.15h-.03c.04.45.06,1.18.06,2.2v7.5H0v-11.2h1.73l3.44,7.81c.27.6.44,1.05.52,1.34h.05c.22-.61.4-1.07.54-1.38l3.51-7.78h1.64v11.2Z"></path><path class="cls-1" d="M15.68,86.76h-1.31v-11.2h1.31v11.2Z"></path><path class="cls-1" d="M24.44,86.76h-5.81v-11.2h1.31v10.02h4.5v1.19Z"></path><path class="cls-1" d="M31.97,86.76h-5.81v-11.2h1.31v10.02h4.5v1.19Z"></path><path class="cls-1" d="M42.82,86.76h-1.45l-1.19-3.14h-4.75l-1.12,3.14h-1.46l4.3-11.2h1.36l4.31,11.2ZM39.75,82.43l-1.76-4.77c-.06-.16-.11-.41-.17-.75h-.03c-.05.32-.11.57-.18.75l-1.74,4.77h3.88Z"></path><path class="cls-1" d="M48.85,86.76v-11.2h3.19c.97,0,1.74.24,2.3.71.57.47.85,1.09.85,1.85,0,.64-.17,1.19-.52,1.66-.34.47-.82.8-1.42,1v.03c.76.09,1.36.37,1.81.86s.68,1.11.68,1.88c0,.96-.34,1.73-1.03,2.33-.69.59-1.55.89-2.6.89h-3.27ZM50.16,76.74v3.62h1.34c.72,0,1.28-.17,1.7-.52.41-.35.62-.83.62-1.46,0-1.09-.72-1.63-2.15-1.63h-1.51ZM50.16,81.54v4.03h1.78c.77,0,1.37-.18,1.79-.55.42-.36.64-.86.64-1.5,0-1.32-.9-1.98-2.7-1.98h-1.51Z"></path><path class="cls-1" d="M66.7,86.76h-1.45l-1.19-3.14h-4.75l-1.12,3.14h-1.46l4.3-11.2h1.36l4.31,11.2ZM63.62,82.43l-1.76-4.77c-.06-.16-.11-.41-.17-.75h-.03c-.05.32-.11.57-.18.75l-1.74,4.77h3.88Z"></path><path class="cls-1" d="M76.38,86.76h-1.56l-1.88-3.14c-.17-.29-.34-.54-.5-.75s-.33-.37-.5-.5-.35-.23-.55-.29-.42-.09-.66-.09h-1.08v4.77h-1.31v-11.2h3.34c.49,0,.94.06,1.36.18s.77.31,1.08.56.54.56.71.93.26.81.26,1.31c0,.39-.06.75-.18,1.07s-.28.62-.5.87-.48.47-.78.65-.65.32-1.03.42v.03c.19.08.35.18.49.29s.27.23.39.38.25.31.37.5.26.4.41.64l2.1,3.37ZM69.66,76.74v4.06h1.78c.33,0,.63-.05.91-.15s.52-.24.72-.43.36-.41.48-.68.17-.57.17-.9c0-.6-.19-1.07-.58-1.4s-.95-.5-1.68-.5h-1.8Z"></path><path class="cls-1" d="M84.12,76.74h-3.23v10.02h-1.31v-10.02h-3.23v-1.19h7.77v1.19Z"></path><path class="cls-1" d="M89.68,86.94c-1.59,0-2.86-.52-3.82-1.57s-1.43-2.41-1.43-4.09c0-1.8.49-3.24,1.46-4.31s2.3-1.61,3.98-1.61c1.55,0,2.79.52,3.74,1.56s1.42,2.4,1.42,4.09c0,1.83-.48,3.27-1.45,4.34s-2.27,1.59-3.89,1.59ZM89.77,76.55c-1.18,0-2.13.42-2.87,1.27s-1.1,1.96-1.1,3.34.36,2.49,1.07,3.33,1.65,1.26,2.8,1.26c1.23,0,2.2-.4,2.91-1.2s1.06-1.92,1.06-3.37-.34-2.62-1.03-3.43-1.64-1.21-2.84-1.21Z"></path><path class="cls-1" d="M106.26,86.76h-1.61l-5.77-8.93c-.15-.22-.27-.46-.36-.7h-.05c.04.24.06.75.06,1.54v8.09h-1.31v-11.2h1.7l5.61,8.79c.23.36.39.61.45.75h.03c-.05-.32-.08-.87-.08-1.65v-7.89h1.31v11.2Z"></path></g></svg>